<svg width="12" height="21" viewBox="0 0 12 21" fill="none" xmlns="http://www.w3.org/2000/svg">
<path id="Vector" d="M8.03419 9.57305L3.8858 8.27695C3.40566 8.1293 3.07148 7.64941 3.07148 7.11621C3.07148 6.44766 3.57851 5.90625 4.20461 5.90625H6.75126C7.21987 5.90625 7.68081 6.05801 8.06492 6.33691C8.29922 6.50508 8.61419 6.46406 8.81393 6.25488L10.1506 4.86035C10.4234 4.57734 10.3849 4.10566 10.0815 3.85547C9.14043 3.06797 7.96505 2.6291 6.75894 2.625V0.65625C6.75894 0.295312 6.48238 0 6.14436 0H4.91521C4.5772 0 4.30064 0.295312 4.30064 0.65625V2.625H4.20461C1.75783 2.625 -0.208819 4.86856 0.0178061 7.53047C0.179132 9.42129 1.5312 10.9594 3.23665 11.4926L7.17378 12.723C7.65392 12.8748 7.98809 13.3506 7.98809 13.8838C7.98809 14.5523 7.48107 15.0938 6.85497 15.0938H4.30832C3.8397 15.0938 3.37877 14.942 2.99466 14.6631C2.76035 14.4949 2.44538 14.5359 2.24565 14.7451L0.908942 16.1396C0.636224 16.4227 0.674635 16.8943 0.978082 17.1445C1.91915 17.932 3.09453 18.3709 4.30064 18.375V20.3438C4.30064 20.7047 4.5772 21 4.91521 21H6.14436C6.48238 21 6.75894 20.7047 6.75894 20.3438V18.3668C8.54889 18.3299 10.2275 17.1938 10.819 15.385C11.6448 12.8584 10.2582 10.2662 8.03419 9.57305Z" fill="#777777"/>
</svg>
