<svg width="25" height="25" viewBox="0 0 25 25" fill="none" xmlns="http://www.w3.org/2000/svg">
<path id="Vector" d="M21.96 8.27969L14.8493 2.74903C14.2253 2.26357 13.4573 2 12.6667 2C11.8761 2 11.108 2.26357 10.484 2.74903L3.372 8.27969C2.94459 8.61207 2.59879 9.03773 2.36101 9.52416C2.12322 10.0106 1.99974 10.5449 2 11.0864V20.6864C2 21.3936 2.28095 22.0719 2.78105 22.572C3.28115 23.0721 3.95942 23.353 4.66667 23.353H20.6667C21.3739 23.353 22.0522 23.0721 22.5523 22.572C23.0524 22.0719 23.3333 21.3936 23.3333 20.6864V11.0864C23.3333 9.98903 22.8267 8.95303 21.96 8.27969Z" fill="#EB5757" stroke="#F2994A" stroke-width="3" stroke-linecap="round" stroke-linejoin="round"/>
</svg>
