<svg width="22" height="22" viewBox="0 0 22 22" fill="none" xmlns="http://www.w3.org/2000/svg">
<path id="Vector" d="M21.875 2.34375V19.5312C21.875 20.8252 20.8252 21.875 19.5312 21.875H7.53906C8.01758 21.0742 8.63281 19.9219 8.87695 18.9795C9.02344 18.418 9.62402 16.1279 9.62402 16.1279C10.0146 16.875 11.1572 17.5049 12.373 17.5049C15.9912 17.5049 18.5938 14.1797 18.5938 10.0488C18.5938 6.08887 15.3613 3.125 11.2012 3.125C6.02539 3.125 3.28125 6.59668 3.28125 10.3809C3.28125 12.1387 4.21875 14.3262 5.71289 15.0244C5.94238 15.1318 6.05957 15.083 6.11328 14.8633C6.15234 14.6973 6.35742 13.8818 6.44531 13.5059C6.47461 13.3838 6.45996 13.2812 6.3623 13.1641C5.86914 12.5635 5.46875 11.46 5.46875 10.4297C5.46875 7.7832 7.4707 5.22461 10.8838 5.22461C13.8281 5.22461 15.8936 7.23144 15.8936 10.1025C15.8936 13.3447 14.2578 15.5908 12.124 15.5908C10.9473 15.5908 10.0684 14.6191 10.3467 13.4229C10.6836 11.9971 11.3379 10.459 11.3379 9.42871C11.3379 6.84082 7.65137 7.19727 7.65137 10.6494C7.65137 11.709 8.00781 12.4316 8.00781 12.4316C6.47461 18.916 6.24512 18.999 6.5625 21.8359L6.66992 21.875H2.34375C1.0498 21.875 0 20.8252 0 19.5312V2.34375C0 1.0498 1.0498 0 2.34375 0H19.5312C20.8252 0 21.875 1.0498 21.875 2.34375Z" fill="white"/>
</svg>
