<svg width="16" height="16" viewBox="0 0 16 16" fill="none" xmlns="http://www.w3.org/2000/svg">
<g id="key">
<path id="Vector" d="M13.1933 9.95332C11.8199 11.32 9.85327 11.74 8.1266 11.2L4.9866 14.3333C4.75993 14.5667 4.31327 14.7067 3.99327 14.66L2.53993 14.46C2.05993 14.3933 1.61327 13.94 1.53993 13.46L1.33993 12.0067C1.29327 11.6867 1.4466 11.24 1.6666 11.0133L4.79993 7.87998C4.2666 6.14665 4.67993 4.17998 6.05327 2.81332C8.01994 0.846651 11.2133 0.846651 13.1866 2.81332C15.1599 4.77998 15.1599 7.98665 13.1933 9.95332Z" fill="white"/>
<path id="Vector_2" d="M4.59326 11.66L6.1266 13.1933" stroke="#F2994A" stroke-width="2" stroke-miterlimit="10" stroke-linecap="round" stroke-linejoin="round"/>
<path id="Vector_3" d="M9.66675 7.33331C10.219 7.33331 10.6667 6.8856 10.6667 6.33331C10.6667 5.78103 10.219 5.33331 9.66675 5.33331C9.11446 5.33331 8.66675 5.78103 8.66675 6.33331C8.66675 6.8856 9.11446 7.33331 9.66675 7.33331Z" fill="#F2994A" stroke="#F2994A" stroke-width="2" stroke-linecap="round" stroke-linejoin="round"/>
</g>
</svg>
